<svg width="34" height="34" viewBox="0 0 34 34" fill="none" xmlns="http://www.w3.org/2000/svg">
<path d="M17.0002 29.75V9.91667M17.0002 29.75C17.0002 28.6228 16.5524 27.5418 15.7554 26.7448C14.9583 25.9478 13.8773 25.5 12.7502 25.5H4.25016C3.87444 25.5 3.5141 25.3507 3.24843 25.0851C2.98275 24.8194 2.8335 24.4591 2.8335 24.0833V5.66667C2.8335 5.29094 2.98275 4.93061 3.24843 4.66493C3.5141 4.39926 3.87444 4.25 4.25016 4.25H11.3335C12.8364 4.25 14.2777 4.84702 15.3404 5.90973C16.4031 6.97243 17.0002 8.41377 17.0002 9.91667M17.0002 29.75C17.0002 28.6228 17.4479 27.5418 18.245 26.7448C19.042 25.9478 20.123 25.5 21.2502 25.5H29.7502C30.1259 25.5 30.4862 25.3507 30.7519 25.0851C31.0176 24.8194 31.1668 24.4591 31.1668 24.0833V22.2417M17.0002 9.91667C17.0002 8.41377 17.5972 6.97243 18.6599 5.90973C19.7226 4.84702 21.1639 4.25 22.6668 4.25H29.7502C30.1259 4.25 30.4862 4.39926 30.7519 4.66493C31.0176 4.93061 31.1668 5.29094 31.1668 5.66667V8.5M22.6668 17L25.5002 19.8333L31.1668 14.1667" stroke="white" stroke-width="2" stroke-linecap="round" stroke-linejoin="round"/>
</svg>
