<svg width="34" height="34" viewBox="0 0 34 34" fill="none" xmlns="http://www.w3.org/2000/svg">
<path d="M21.25 29.75V18.4166C21.25 18.0409 21.1007 17.6806 20.8351 17.4149C20.5694 17.1492 20.2091 17 19.8333 17H14.1667C13.7909 17 13.4306 17.1492 13.1649 17.4149C12.8993 17.6806 12.75 18.0409 12.75 18.4166V29.75M4.25 14.1666C4.2499 13.7545 4.33972 13.3473 4.5132 12.9734C4.68668 12.5995 4.93963 12.268 5.25442 12.002L15.1711 3.50339C15.6825 3.07118 16.3304 2.83405 17 2.83405C17.6696 2.83405 18.3175 3.07118 18.8289 3.50339L28.7456 12.002C29.0604 12.268 29.3133 12.5995 29.4868 12.9734C29.6603 13.3473 29.7501 13.7545 29.75 14.1666V26.9166C29.75 27.6681 29.4515 28.3888 28.9201 28.9201C28.3888 29.4515 27.6681 29.75 26.9167 29.75H7.08333C6.33189 29.75 5.61122 29.4515 5.07986 28.9201C4.54851 28.3888 4.25 27.6681 4.25 26.9166V14.1666Z" stroke="#008CFF" stroke-width="2" stroke-linecap="round" stroke-linejoin="round"/>
</svg>
