<svg width="34" height="34" viewBox="0 0 34 34" fill="none" xmlns="http://www.w3.org/2000/svg">
<path d="M29.75 22.6667V11.3333C29.7495 10.8365 29.6183 10.3485 29.3697 9.91832C29.121 9.48815 28.7636 9.13093 28.3333 8.8825L18.4167 3.21584C17.9859 2.96716 17.4974 2.83624 17 2.83624C16.5026 2.83624 16.0141 2.96716 15.5833 3.21584L5.66667 8.8825C5.23637 9.13093 4.87897 9.48815 4.63032 9.91832C4.38167 10.3485 4.25051 10.8365 4.25 11.3333V22.6667C4.25051 23.1635 4.38167 23.6515 4.63032 24.0817C4.87897 24.5119 5.23637 24.8691 5.66667 25.1175L15.5833 30.7842C16.0141 31.0328 16.5026 31.1638 17 31.1638C17.4974 31.1638 17.9859 31.0328 18.4167 30.7842L28.3333 25.1175C28.7636 24.8691 29.121 24.5119 29.3697 24.0817C29.6183 23.6515 29.7495 23.1635 29.75 22.6667Z" stroke="white" stroke-width="2" stroke-linecap="round" stroke-linejoin="round"/>
<path d="M17 22.6667C20.1296 22.6667 22.6667 20.1296 22.6667 17C22.6667 13.8704 20.1296 11.3333 17 11.3333C13.8704 11.3333 11.3333 13.8704 11.3333 17C11.3333 20.1296 13.8704 22.6667 17 22.6667Z" stroke="white" stroke-width="2" stroke-linecap="round" stroke-linejoin="round"/>
</svg>
